{"title":"I Spit on Your Grave 3 (2015) BDRip XviD AC3 - EVO","uid":12510974,"size":1474217519,"categoryP":"video","categoryS":"movies","magnet":"?xt=urn:btih:16f4b78d27a3ff330fd008451b8808cd88b6f7cc&amp;dn=I+Spit+on+Your+Grave+3+%282015%29+BDRip+XviD+AC3+-+EVO&amp;tr=udp%3A%2F%2Ftracker.leechers-paradise.org%3A6969&amp;tr=udp%3A%2F%2Fzer0day.ch%3A1337&amp;tr=udp%3A%2F%2Fopen.demonii.com%3A1337&amp;tr=udp%3A%2F%2Ftracker.coppersurfer.tk%3A6969&amp;tr=udp%3A%2F%2Fexodus.desync.com%3A6969","seeders":0,"leechers":0,"uploader":"tykoon123","files":5,"time":1443556005,"description":"http://www.imgpuppy.com/image/HoXO\r\n\r\nInfo: \r\nFormat                                   : AVI \r\nFormat/Info                              : Audio Video Interleave \r\nFile size                                : 1.36 GiB \r\nDuration                                 : 1h 32mn \r\nOverall bit rate                         : 2 106 Kbps \r\nWriting library                          : VirtualDub build 32593/release \r\n\r\nVideo \r\nID                                       : 0 \r\nFormat                                   : MPEG-4 Visual \r\nFormat profile                           : Advanced    \r\nFormat settings, BVOP                    : 2 \r\nFormat settings, QPel                    : No \r\nFormat settings, GMC                     : No warppoints \r\nFormat settings, Matrix                  : Default (H.263) \r\nMuxing mode                              : Packed bitstream \r\nCodec ID                                 : XVID \r\nCodec ID/Hint                            : XviD \r\nDuration                                 : 1h 32mn \r\nBit rate                                 : 1 649 Kbps \r\nWidth                                    : 720 pixels \r\nHeight                                   : 304 pixels \r\nDisplay aspect ratio                     : 2.35:1 \r\nFrame rate                               : 23.976 fps \r\nColor space                              : YUV \r\nChroma subsampling                       : 4:2:0 \r\nBit depth                                : 8 bits \r\nScan type                                : Progressive \r\nCompression mode                         : Lossy \r\nBits/(Pixel*Frame)                       : 0.314 \r\nStream size                              : 1.07 GiB (78%) \r\nWriting library                          : XviD 66 \r\n\r\nAudio \r\nID                                       : 1 \r\nFormat                                   : AC-3 \r\nFormat/Info                              : Audio Coding 3 \r\nMode extension                           : CM (complete main) \r\nFormat settings, Endianness              : Big \r\nCodec ID                                 : 2000 \r\nDuration                                 : 1h 32mn \r\nBit rate mode                            : Constant \r\nBit rate                                 : 448 Kbps \r\nChannel(s)                               : 6 channels \r\nChannel positions                        : Front: L C R, Side: L R, LFE \r\nSampling rate                            : 48.0 KHz \r\nBit depth                                : 16 bits \r\nCompression mode                         : Lossy \r\nStream size                              : 297 MiB (21%) \r\nAlignment                                : Aligned on interleaves \r\nInterleave, duration                     : 42 ms (1.00 video frame) \r\nInterleave, preload duration             : 512 ms \r\n\r\nIMDB:  \nhttp://www.imdb.com/title/tt4530884/ \r\n\r\nScreens:  \nhttp://www.imgpuppy.com/image/Hz3U \nhttp://www.imgpuppy.com/image/H2c2 \nhttp://www.imgpuppy.com/image/HNrp \nhttp://www.imgpuppy.com/image/Hj9I","torrent":{"xt":"urn:btih:16f4b78d27a3ff330fd008451b8808cd88b6f7cc","amp;dn":"I+Spit+on+Your+Grave+3+%282015%29+BDRip+XviD+AC3+-+EVO","amp;tr":["udp%3A%2F%2Ftracker.leechers-paradise.org%3A6969","udp%3A%2F%2Fzer0day.ch%3A1337","udp%3A%2F%2Fopen.demonii.com%3A1337","udp%3A%2F%2Ftracker.coppersurfer.tk%3A6969","udp%3A%2F%2Fexodus.desync.com%3A6969"],"infoHash":"16f4b78d27a3ff330fd008451b8808cd88b6f7cc","infoHashBuffer":{"type":"Buffer","data":[22,244,183,141,39,163,255,51,15,208,8,69,27,136,8,205,136,182,247,204]},"announce":[],"urlList":[]}}